<svg xmlns="http://www.w3.org/2000/svg" viewBox="0 0 24 24" width="24" height="24">
  <path fill="#4CAF50" d="M12,2L4.5,9.5C3.5,10.5 3,11.8 3,13.3C3,16.4 5.6,19 8.7,19C10.2,19 11.5,18.5 12.5,17.5L20,10L12,2M12,4.2L17.8,10L12.5,15.3C11.8,16 10.8,16.5 9.7,16.5C7,16.5 4.8,14.3 4.8,11.6C4.8,10.5 5.3,9.5 6,8.8L12,4.2Z"/>
  <path fill="#4CAF50" d="M12,13A2,2 0 0,0 14,11C14,9.9 13.1,9 12,9C10.9,9 10,9.9 10,11A2,2 0 0,0 12,13M18,14C16.9,14 16,13.1 16,12C16,10.9 16.9,10 18,10C19.1,10 20,10.9 20,12C20,13.1 19.1,14 18,14M6,14C4.9,14 4,13.1 4,12C4,10.9 4.9,10 6,10C7.1,10 8,10.9 8,12C8,13.1 7.1,14 6,14M14,18C14,19.68 12.76,21 11.2,21H6.8C5.24,21 4,19.68 4,18V17H14V18Z"/>
</svg>